<svg xmlns="http://www.w3.org/2000/svg" xmlns:xlink="http://www.w3.org/1999/xlink" width="139" height="269" viewBox="0 0 139 269">
  <defs>
    <path id="artboard-b" d="M51,28 C54.6543941,30.684395 57.3646679,33.4098916 59.1308214,36.1764899"/>
    <filter id="artboard-a" width="419.8%" height="418%" x="-159.9%" y="-110.1%" filterUnits="objectBoundingBox">
      <feMorphology in="SourceAlpha" operator="dilate" radius="2" result="shadowSpreadOuter1"/>
      <feOffset dy="2" in="shadowSpreadOuter1" result="shadowOffsetOuter1"/>
      <feGaussianBlur in="shadowOffsetOuter1" result="shadowBlurOuter1" stdDeviation="2"/>
      <feComposite in="shadowBlurOuter1" in2="SourceAlpha" operator="out" result="shadowBlurOuter1"/>
      <feColorMatrix in="shadowBlurOuter1" result="shadowMatrixOuter1" values="0 0 0 0 0   0 0 0 0 0   0 0 0 0 0  0 0 0 0.5 0"/>
      <feMorphology in="SourceAlpha" operator="dilate" radius="2" result="shadowSpreadOuter2"/>
      <feOffset dy="2" in="shadowSpreadOuter2" result="shadowOffsetOuter2"/>
      <feGaussianBlur in="shadowOffsetOuter2" result="shadowBlurOuter2" stdDeviation="2"/>
      <feComposite in="shadowBlurOuter2" in2="SourceAlpha" operator="out" result="shadowBlurOuter2"/>
      <feColorMatrix in="shadowBlurOuter2" result="shadowMatrixOuter2" values="0 0 0 0 0   0 0 0 0 0   0 0 0 0 0  0 0 0 0.5 0"/>
      <feMerge>
        <feMergeNode in="shadowMatrixOuter1"/>
        <feMergeNode in="shadowMatrixOuter2"/>
      </feMerge>
    </filter>
  </defs>
  <g fill="none" fill-rule="evenodd">
    <rect width="139" height="269"/>
    <g stroke="#000" stroke-width="4" transform="translate(13)">
      <rect width="109" height="188" x="2" y="19" fill="#FFF" rx="27"/>
      <rect width="2" height="17" x="30" y="2" rx="1"/>
    </g>
    <path fill="#FFF" fill-rule="nonzero" d="M34,88.9453125 C34,150.055193 34,181.400271 34,182.980546 C34,185.350959 36.2121946,203.389482 45,220.896522 C50.8585369,232.691894 57.8585369,241.053889 66,245.982505 C66.6666667,250.627664 67.7467958,254.284265 69.2403873,256.952308 C71.4807746,260.778983 74.4132744,262.479728 76,262.989951 C77.5867256,263.49486 81.9396613,262.304338 83,261.02878 C84.0603387,259.588462 85,255.331285 85,250.999701 C85,246.577765 84.7325338,240.874956 84.7325338,240.874956 C84.25953,240.28501 82.3432494,236.373298 81,232.971808 C80.7162987,232.296825 67.7310154,210.277497 66,206.020321 C63.4180424,199.647843 62.3656661,196.331391 64,189.018189 C65.6343339,181.61995 68.6020162,180.009558 72,180.009558 C75.3979838,180.009558 78.0662955,183.666159 80,189.018189 C81.9337045,194.285183 82.2300438,203.474519 82.8016389,209.001939 C83.3550442,214.268932 82.8016389,223.708065 82.8016389,226.089108 C82.8016389,227.619778 85.9822992,236.968558 91.0702751,242.921165 C93.3979186,245.647671 99.6433907,247.768287 101.215235,247.768287 C101.765731,247.768287 104.223862,246.923229 104.672126,246.407691 C105.994576,243.119585 106.486968,238.640957 106.149302,232.971808 C105.801354,229.825431 104.061672,222.517544 103.251836,220.896522 C105.083945,209.622002 106,201.973966 106,197.952414 C106,191.90414 105,183.664969 105,182.980546 C105,182.524264 105,151.179186 105,88.9453125 L34,88.9453125 Z"/>
    <path fill="#000" fill-rule="nonzero" d="M43.212548,221.793748 C39.2381113,213.875887 36.2819646,205.293108 34.2580994,196.721908 C32.8651127,190.822519 32,185.055151 32,182.980546 L32,86.9453125 L107,86.9453125 L107,182.980546 C107,183.040475 107.356099,186.698981 107.492617,188.28334 C107.653488,190.150337 107.780308,191.894645 107.868274,193.545442 C107.954176,195.157521 108,196.631329 108,197.952414 C108,202.046335 107.105505,209.582551 105.317547,220.651897 C106.28615,223.205132 107.796465,229.670966 108.137184,232.751975 C108.499541,238.792533 107.97624,243.552299 106.527674,247.153978 L106.18138,247.719999 C105.360863,248.663657 102.398516,249.768287 101.215235,249.768287 C98.4500797,249.768287 91.9139344,246.989705 89.549964,244.220647 C88.5810127,243.087036 87.6189136,241.733286 86.706696,240.277177 C86.738857,240.962903 86.7536415,241.295592 86.7726026,241.752118 C86.8041505,242.511699 86.8356881,243.340551 86.8651256,244.211546 C86.9145152,245.672883 86.9528989,247.102551 86.9760126,248.446049 C86.9917185,249.358967 87,250.213588 87,250.999701 C87,255.56586 86.0281242,260.289012 84.6106179,262.214491 C82.9597226,264.205902 77.7609847,265.649125 75.3877593,264.893937 C72.6623798,264.017571 69.6521892,261.614171 67.4952323,257.929259 C65.9710659,255.206599 64.8687078,251.631535 64.1607333,247.194156 C56.0091004,241.997757 49.0340796,233.514654 43.212548,221.793748 Z M85.8676387,238.88606 C86.0661192,239.266067 86.2155718,239.527407 86.2929195,239.623878 L86.3414539,239.684412 C86.1816724,239.420812 86.0236532,239.154474 85.8676387,238.88606 Z M80.8016389,226.089108 C80.8016389,225.699662 80.8142164,225.157415 80.8410481,224.299857 C80.852022,223.949123 80.9095546,222.216486 80.9256153,221.708145 C80.9953896,219.49971 81.0352451,217.733505 81.0453037,216.012143 C81.0617482,213.197943 80.9906072,210.905213 80.8122477,209.207663 C80.7358408,208.468796 80.6616686,207.645452 80.5730787,206.575617 C80.531104,206.068719 80.346027,203.760656 80.2933453,203.125347 C80.1776711,201.730384 80.0742258,200.587764 79.9614414,199.493112 C79.5118755,195.12976 78.9399994,191.934079 78.1190075,189.697798 C76.2886711,184.631865 74.0798217,182.009558 72,182.009558 C68.973762,182.009558 67.2217562,183.705868 65.951854,189.454384 C64.5837606,195.576232 64.9711853,198.155181 67.8526997,205.266993 C68.4964272,206.850145 70.9822716,211.419937 74.8175129,218.160658 C74.98122,218.448306 74.98122,218.448306 75.1450342,218.735835 C76.2486935,220.672493 80.0809434,227.318589 81.8958344,230.509811 C81.2063619,228.620616 80.8016389,227.037585 80.8016389,226.089108 Z M36,90.9453125 L36,182.980546 C36,184.691629 36.8230321,190.178462 38.1510466,195.80269 C40.1076594,204.089071 42.964163,212.38255 46.7912261,220.006854 C52.4926126,231.485825 59.2505315,239.558637 67.035742,244.271587 L67.8452784,244.761658 L67.9797152,245.698379 C68.6142194,250.119437 69.6273215,253.54913 70.9663411,255.941821 C72.6050825,258.74086 74.8207552,260.5099 76.6064524,261.084114 C76.8952094,261.175999 77.999281,261.072817 79.1624069,260.749922 C80.2658094,260.443606 81.2013851,259.999086 81.4334595,259.780247 C82.2110307,258.620246 83,254.717025 83,250.999701 C83,250.23814 82.9919371,249.406081 82.9766044,248.514856 C82.9539063,247.195513 82.9160999,245.787347 82.8674082,244.346659 C82.8383375,243.486516 82.8071876,242.667854 82.7760482,241.918108 C81.8614186,239.96246 80.2490681,236.515203 79.1562391,233.746757 C79.146355,233.723241 78.3193562,232.277584 76.8104692,229.663044 C74.2829253,225.283417 73.1798204,223.366152 71.669743,220.716327 C71.5052633,220.427631 71.5052633,220.427631 71.3408583,220.138757 C67.375326,213.169039 64.889985,208.600173 64.1463717,206.771362 C60.9842057,198.966884 60.4789631,195.603663 62.0470841,188.586774 C63.6920063,181.140604 66.9258552,178.009558 72,178.009558 C76.3043911,178.009558 79.5346481,181.844462 81.8774675,188.328903 C82.8395019,190.949277 83.4590064,194.411109 83.9403777,199.083154 C84.0562807,200.208074 84.1619735,201.375519 84.2796634,202.79479 C84.3329378,203.437247 84.5180393,205.745616 84.5594348,206.245519 C84.64597,207.29054 84.7179272,208.089297 84.7906897,208.792948 C84.9873217,210.664379 85.0624692,213.086235 85.0452354,216.035516 C85.0349393,217.797511 84.9943856,219.594662 84.9236204,221.83446 C84.9074171,222.347312 84.8499117,224.079132 84.8390916,224.42495 C84.8135432,225.241491 84.8016389,225.754717 84.8016389,226.089108 C84.8016389,226.598432 85.6714373,229.326772 86.8604046,232.045556 C88.4652799,235.715386 90.4502637,239.117642 92.591366,241.622595 C93.4028022,242.573078 95.1150975,243.636594 97.2086327,244.526577 C98.8406355,245.220357 100.544307,245.719034 101.135271,245.764844 C101.20068,245.750934 101.288097,245.729205 101.390334,245.700866 C101.651814,245.628385 101.970591,245.523944 102.283238,245.407361 C102.564127,245.30262 102.823469,245.1943 103.029975,245.095842 C104.063434,242.173397 104.451872,238.183004 104.155901,233.14247 C103.814881,230.148252 102.135769,223.137645 101.462684,221.790353 L101.174192,221.212889 L101.27773,220.575729 C103.092939,209.405215 104,201.832266 104,197.952414 C104,196.709124 103.956319,195.304229 103.873941,193.758287 C103.78854,192.155636 103.664775,190.453344 103.507383,188.626731 C103.397391,187.35021 103,183.267475 103,182.980546 L103,90.9453125 L36,90.9453125 Z"/>
    <g transform="translate(29 34)">
      <ellipse cx="39" cy="38.5" fill="#FFF" stroke="#000" stroke-width="4" rx="39" ry="38.5"/>
      <path fill="#080037" stroke="#000" stroke-width="4" d="M40,67.3945363 C55.463973,67.3945363 68,56.3459434 68,42.7168134 C68,29.0876834 55.463973,16.5331303 40,16.5331303 C24.536027,16.5331303 12,29.0876834 12,42.7168134 C12,56.3459434 24.536027,67.3945363 40,67.3945363 Z"/>
      <circle cx="45" cy="25" r="3" fill="#BAD3D7"/>
      <use fill="#000" filter="url(#artboard-a)" xlink:href="#artboard-b"/>
      <use fill="#BAD3D7" stroke="#BAD3D7" stroke-width="4" xlink:href="#artboard-b"/>
    </g>
    <g stroke="#000" stroke-width="4" transform="translate(47 123)">
      <rect width="21" height="1" x="2" y="35" rx=".5"/>
      <rect width="6" height="1" x="37" y="35" rx=".5"/>
      <rect width="41" height="21" x="2" y="2" fill="#64856B" rx="5"/>
    </g>
    <g stroke="#000" stroke-width="4" transform="matrix(1 0 0 -1 0 132)">
      <path fill="#FFF" d="M2.10402907,72.0003773 L26.1090391,72.0003773 L26.1090391,2.30198293 C18.579967,3.81491345 12.8266471,9.76549772 8.78934344,20.4355144 C4.35420029,32.1569642 2.11193655,49.3597446 2.10402907,72.0003773 Z"/>
      <path fill="#D50000" d="M2.11199661,72.1341568 C1.97634198,80.9999451 5.87261908,86.9432709 13.8008279,89.964134 C21.7290367,92.9849972 25.8292487,87.0416714 26.1014638,72.1341568 L2.11199661,72.1341568 Z"/>
      <rect width="1" height="39" x="29" y="2"/>
    </g>
    <g stroke="#000" stroke-width="4" transform="matrix(-1 0 0 1 139 87)">
      <path fill="#FFF" d="M2.10402907,72.0003773 L26.1090391,72.0003773 L26.1090391,2.30198293 C18.579967,3.81491345 12.8266471,9.76549772 8.78934344,20.4355144 C4.35420029,32.1569642 2.11193655,49.3597446 2.10402907,72.0003773 Z"/>
      <path fill="#D0021B" d="M2.11199661,72.1341568 C1.97634198,80.9999451 5.87261908,86.9432709 13.8008279,89.964134 C21.7290367,92.9849972 25.8292487,87.0416714 26.1014638,72.1341568 L2.11199661,72.1341568 Z"/>
      <rect width="1" height="41" x="29" y="2"/>
    </g>
  </g>
</svg>
